          _______  _______  _______  _        _        _______  _______ 
|     /|(  ____ (  ____ )(  ___  )|     /(       (  ____ (  ____ )
| )   ( || (    /| (    )|| (   ) ||    / /| (      | (    /| (    )|
| (___) || (__    | (____)|| (___) ||  (_/ / | |      | (__    | (____)|
|  ___  ||  __)   |     __)|  ___  ||   _ (  | |      |  __)   |     __)
| (   ) || (      | ( (   | (   ) ||  (   | |      | (      | ( (   
| )   ( || (____/| )  __| )   ( ||  /   | (____/| (____/| )  __
|/     |(_______/|/   __/|/     ||_/    /(_______/(_______/|/   __/
                                                                        

==================================================
Please seed after your download completes , thanks 
==================================================


General
Format                           : Matroska
File size                        : 699 MiB
Duration                         : 2h 18mn
Overall bit rate                 : 708 Kbps
Movie name                       : Shutter Island 2010 BRrip 720p x264 [Herakler-Vnsharing.net]
Encoded date                     : UTC 2010-12-02 11:55:23
Encoder                          : Herakler
Writing application              : mkvmerge v3.2.0 ('Beginnings') built on Feb 12 2010 16:46:17
Writing library                  : libebml v0.7.9 + libmatroska v0.8.1

Video
ID                               : 1
Format                           : AVC
Format/Info                      : Advanced Video Codec
Format profile                   : High@L4.0
Format settings, CABAC           : Yes
Format settings, ReFrames        : 3 frames
Codec ID                         : V_MPEG4/ISO/AVC
Duration                         : 2h 18mn
Bit rate mode                    : Variable
Bit rate                         : 643 Kbps
Maximum bit rate                 : 25.0 Mbps
Width                            : 1 280 pixels
Height                           : 544 pixels
Display aspect ratio             : 2.35:1
Frame rate                       : 23.976 fps
Color space                      : YUV
Chroma subsampling               : 4:2:0
Bit depth                        : 8 bits
Scan type                        : Progressive
Bits/(Pixel*Frame)               : 0.039
Stream size                      : 622 MiB (89%)
Writing library                  : x264 core 105 r1732 2b04482

Audio
ID                               : 2
Format                           : AC-3
Format/Info                      : Audio Coding 3
Mode extension                   : CM (complete main)
Codec ID                         : A_AC3
Duration                         : 2h 18mn
Bit rate mode                    : Constant
Channel(s)                       : 2 channels
Channel positions                : Front: L R
Sampling rate                    : 48.0 KHz
Bit depth                        : 16 bits
Stream size                      : 63.2 MiB (9%)

Text #1
ID                               : 3
Format                           : UTF-8
Codec ID                         : S_TEXT/UTF8
Codec ID/Info                    : UTF-8 Plain Text
Language                         : Vietnamese

Text #2
ID                               : 4
Format                           : UTF-8
Codec ID                         : S_TEXT/UTF8
Codec ID/Info                    : UTF-8 Plain Text
Language                         : English

Screenshot
http://img813.imageshack.us/img813/704/shutterisland2010brrip7.jpg